<?xml version="1.0" standalone="no"?>
<!DOCTYPE svg PUBLIC "-//W3C//DTD SVG 20010904//EN"
 "http://www.w3.org/TR/2001/REC-SVG-20010904/DTD/svg10.dtd">
<svg version="1.0" xmlns="http://www.w3.org/2000/svg"
 width="790.000000pt" height="790.000000pt" viewBox="0 0 790.000000 790.000000"
 preserveAspectRatio="xMidYMid meet">
<metadata>
Created by potrace 1.14, written by Peter Selinger 2001-2017
</metadata>
<g transform="translate(0.000000,790.000000) scale(0.100000,-0.100000)"
fill="#000000" stroke="none">
<path d="M4450 6424 c-47 -7 -92 -18 -100 -23 -9 -4 -31 -12 -50 -16 -19 -4
-59 -21 -90 -38 -30 -17 -68 -38 -85 -47 -16 -9 -43 -24 -58 -34 -31 -21 -62
-38 -134 -76 -26 -13 -61 -34 -78 -45 -48 -32 -67 -44 -113 -66 -23 -12 -45
-25 -47 -30 -3 -4 -29 -20 -58 -34 -66 -34 -105 -56 -140 -79 -33 -22 -72 -44
-144 -81 -29 -14 -55 -30 -58 -34 -2 -5 -24 -18 -47 -30 -24 -12 -52 -27 -63
-34 -11 -7 -47 -28 -80 -47 -33 -19 -69 -40 -80 -47 -11 -7 -31 -18 -45 -25
-14 -6 -38 -21 -53 -31 -26 -18 -75 -46 -155 -88 -18 -9 -39 -23 -47 -29 -30
-25 -35 0 -35 168 l0 167 -52 23 c-28 13 -58 21 -67 20 -9 -2 -40 -37 -69 -78
-30 -41 -60 -76 -68 -78 -8 -2 -14 -10 -14 -19 0 -16 -162 -241 -238 -330 -24
-29 -52 -53 -62 -53 -73 0 3 360 88 416 16 10 35 14 54 10 18 -3 27 -2 23 4
-10 17 -74 11 -94 -7 -60 -57 -116 -241 -115 -375 1 -81 0 -87 -20 -91 -16 -3
-15 -5 7 -6 15 0 30 -7 33 -15 3 -7 -18 -44 -45 -81 l-51 -68 0 -116 c0 -64
-3 -127 -7 -139 -7 -26 -13 -26 -145 5 l-67 16 -7 44 c-13 87 33 268 88 346
11 15 16 27 11 27 -15 0 -60 -86 -83 -156 -27 -85 -32 -96 -53 -106 -9 -4 -25
-13 -35 -18 -9 -6 -28 -16 -42 -22 -14 -7 -38 -21 -55 -33 -16 -11 -38 -25
-49 -30 -11 -6 -23 -20 -26 -32 -5 -22 -50 -63 -69 -63 -11 0 -137 -122 -183
-176 -48 -57 -51 -71 -28 -103 29 -41 26 -52 -12 -44 -18 3 -37 6 -42 7 -5 0
-19 -19 -32 -44 -14 -24 -28 -47 -32 -50 -14 -10 -92 -212 -103 -265 -4 -22
-14 -67 -23 -100 -10 -40 -15 -108 -16 -206 0 -131 2 -148 19 -163 24 -22 39
-129 22 -150 -13 -16 -2 -37 64 -125 101 -134 216 -221 308 -235 39 -6 47 -11
48 -29 0 -12 0 -78 -1 -147 -1 -116 1 -128 22 -160 14 -21 53 -51 98 -77 41
-23 80 -46 87 -52 7 -6 15 -11 19 -11 3 0 55 -29 115 -65 59 -36 111 -65 115
-65 3 0 19 -9 35 -21 l30 -21 -26 -20 c-14 -11 -25 -30 -25 -42 0 -12 -11 -33
-25 -46 -39 -36 -34 -75 13 -100 38 -22 140 -80 372 -215 74 -43 159 -92 189
-109 29 -17 79 -46 110 -64 31 -17 78 -43 104 -57 l48 -26 26 21 c14 11 31 20
38 20 7 0 17 6 24 13 6 8 35 26 66 42 l55 28 83 -49 c266 -156 317 -181 407
-199 63 -13 92 -14 128 -6 26 5 65 13 87 16 22 4 45 10 50 15 6 4 24 10 40 14
17 4 44 17 60 30 57 41 115 55 115 26 0 -5 24 -43 53 -86 62 -92 151 -159 198
-149 38 9 72 -11 64 -36 -4 -13 -1 -21 12 -26 10 -3 26 -13 36 -22 15 -13 49
-16 180 -17 89 -1 167 -4 172 -5 10 -3 58 18 190 83 146 72 176 95 167 130 -3
11 1 18 11 18 8 0 20 7 27 15 7 8 20 15 29 15 37 1 249 229 234 254 -4 6 -16
23 -27 38 -11 15 -18 30 -15 32 2 2 23 1 45 -3 l42 -8 43 76 c24 42 47 85 51
96 3 11 18 52 33 90 14 39 27 81 30 95 2 14 12 54 21 90 14 48 18 104 19 217
0 139 -2 153 -19 166 -17 12 -20 29 -22 105 -2 88 -3 91 -41 140 l-39 49 1
142 1 142 35 19 c19 10 44 23 56 29 28 13 37 29 38 66 0 27 7 33 62 60 35 17
68 36 75 43 7 7 18 12 25 12 8 0 25 11 40 24 l25 24 87 -51 c47 -28 97 -57
111 -66 78 -50 250 -137 291 -149 38 -10 35 -11 172 67 142 80 167 120 167
268 0 138 -16 163 -154 245 -25 15 -46 32 -46 37 0 6 19 21 43 35 53 32 89 69
117 123 20 39 21 54 18 202 l-3 161 -34 30 c-18 17 -36 29 -39 26 -5 -6 38
-45 49 -46 13 0 17 -70 8 -106 -20 -70 -95 -132 -299 -247 -19 -10 -39 -23
-45 -27 -5 -4 -35 -21 -65 -37 -30 -17 -71 -40 -90 -51 -19 -12 -55 -33 -80
-47 -25 -14 -52 -29 -60 -35 -34 -21 -217 -126 -240 -137 -14 -7 -32 -17 -40
-23 -13 -9 -49 -29 -157 -91 -18 -11 -48 -27 -65 -38 -108 -61 -145 -82 -158
-91 -8 -6 -26 -16 -40 -22 -14 -7 -38 -21 -55 -32 -35 -24 -69 -44 -142 -81
-29 -14 -55 -30 -58 -34 -2 -5 -31 -21 -62 -36 -32 -15 -65 -33 -73 -40 -26
-23 -65 -28 -79 -11 -17 21 -58 20 -97 -2 -49 -27 -127 -71 -149 -84 -87 -54
-129 -83 -150 -104 -13 -13 -30 -24 -37 -24 -15 0 -77 -62 -127 -128 -18 -23
-47 -49 -65 -58 -17 -8 -40 -20 -51 -27 -11 -7 -38 -23 -60 -35 -22 -12 -58
-33 -80 -47 -62 -38 -203 -105 -223 -105 -10 0 -23 -5 -28 -10 -21 -21 -193
-33 -269 -20 -78 14 -69 10 -186 79 -48 28 -90 51 -94 51 -3 0 -21 11 -39 25
-18 14 -36 25 -41 25 -4 0 -44 22 -89 49 -140 84 -150 91 -176 103 -14 7 -65
37 -115 66 -49 30 -98 58 -110 63 -11 5 -27 13 -35 19 -44 28 -168 100 -174
100 -4 0 -22 11 -40 25 -18 14 -36 25 -41 25 -4 0 -44 22 -89 49 -140 84 -150
91 -176 103 -14 7 -65 37 -115 66 -49 30 -98 58 -110 63 -11 5 -27 13 -35 19
-67 43 -166 100 -175 100 -19 0 -71 55 -83 88 -21 60 24 142 110 203 34 25 36
21 41 -76 2 -38 4 5 5 96 1 91 5 168 8 172 3 3 24 -6 45 -20 l39 -26 0 -143
c0 -121 2 -144 15 -144 13 0 15 20 15 124 0 143 5 151 73 111 23 -13 56 -32
72 -41 186 -101 230 -138 191 -161 -7 -4 -22 -33 -33 -63 -13 -36 -29 -59 -45
-67 -13 -7 -45 -32 -71 -57 -39 -36 -47 -50 -47 -79 0 -31 5 -38 44 -61 24
-14 46 -35 49 -47 4 -14 11 -20 21 -16 8 3 18 2 21 -3 4 -6 1 -10 -6 -10 -8 0
-8 -4 1 -16 10 -11 24 -14 49 -9 32 5 51 -4 170 -75 74 -44 136 -80 138 -80 2
0 48 -26 101 -58 53 -32 104 -61 112 -65 74 -36 166 -97 169 -113 4 -25 23
-36 34 -21 5 8 7 5 5 -8 -3 -18 2 -20 42 -18 37 2 50 8 75 37 16 19 45 43 64
53 19 10 59 32 90 50 31 17 74 42 96 54 22 12 48 28 58 37 16 14 21 14 49 0
l32 -15 -57 -36 c-32 -21 -61 -37 -65 -37 -6 0 -68 -39 -119 -75 -24 -16 -30
-35 -13 -35 5 0 51 -25 102 -56 77 -46 96 -53 113 -45 25 14 69 39 116 69 20
12 41 22 48 22 7 0 11 -36 11 -115 0 -70 4 -115 10 -115 6 0 10 72 10 195 l0
195 45 0 45 0 0 -205 c0 -130 4 -205 10 -205 6 0 10 61 10 163 0 89 4 167 8
173 4 6 27 21 50 33 38 19 43 26 38 46 -5 21 -2 26 21 31 35 8 191 84 263 129
30 19 69 41 85 49 17 9 37 20 45 26 13 8 47 28 172 100 14 8 52 30 85 47 32
18 76 44 98 58 22 13 60 36 85 50 25 14 72 41 105 60 93 53 146 84 190 110 22
13 47 27 55 31 8 4 38 21 65 37 53 32 63 37 223 128 20 12 51 30 67 40 17 10
49 28 73 40 23 12 45 25 48 30 17 29 24 -4 24 -121 0 -176 19 -171 22 6 l3
136 43 24 c23 13 45 24 47 24 2 0 6 -75 8 -167 l3 -168 2 175 2 175 35 24 c37
25 66 41 142 81 26 13 55 30 63 36 8 7 32 21 53 33 20 12 53 30 72 41 19 11
52 30 73 41 20 12 51 30 67 40 17 11 41 24 55 31 14 7 38 21 53 31 52 35 118
67 128 62 5 -4 9 -60 9 -126 0 -73 4 -119 10 -119 6 0 10 53 10 138 l0 137 43
19 c23 11 45 22 50 24 4 2 7 -73 7 -168 0 -111 3 -169 10 -165 6 3 10 45 10
91 l0 86 36 -22 c19 -12 37 -20 40 -17 3 3 -15 17 -40 32 l-46 27 1 76 0 77
48 36 c26 20 66 58 87 85 l39 47 0 138 c0 161 2 156 -114 221 -42 24 -88 50
-102 58 -14 8 -47 26 -72 39 -26 14 -47 29 -47 33 0 4 -4 8 -10 8 -8 0 -90 46
-227 127 -21 13 -45 26 -53 30 -8 4 -44 24 -79 46 -35 21 -74 43 -85 48 -12 5
-66 36 -121 69 -55 33 -122 73 -149 88 -55 30 -69 38 -179 102 -43 25 -97 56
-120 68 -43 24 -200 116 -227 133 -8 5 -34 19 -57 31 -24 12 -43 26 -43 30 0
4 -5 8 -10 8 -6 0 -45 20 -88 45 -110 63 -203 80 -332 59z m94 -40 c9 -22 -1
-34 -30 -34 -13 0 -24 -4 -24 -10 0 -5 14 -10 30 -10 23 0 30 -4 30 -20 0 -21
-33 -35 -67 -28 -13 2 -19 14 -21 47 -2 24 -1 50 2 57 8 20 72 18 80 -2z
m-880 -537 c9 -14 7 -20 -8 -29 -15 -8 -16 -12 -5 -19 23 -14 -5 -32 -39 -24
-26 5 -30 10 -30 41 0 52 56 73 82 31z m1164 -47 c96 -50 99 -53 81 -102 -10
-28 -26 -48 -47 -60 -30 -17 -32 -17 -77 9 -25 14 -48 23 -50 21 -2 -2 11 -12
30 -23 19 -10 35 -23 35 -30 0 -6 -17 -21 -37 -33 -53 -30 -119 -67 -178 -101
-27 -16 -53 -27 -57 -24 -5 2 -8 21 -8 41 0 49 -8 59 -50 67 -37 7 -42 5 -143
-55 -33 -19 -83 -48 -112 -65 -30 -16 -80 -46 -112 -65 -32 -19 -70 -40 -85
-47 -15 -6 -33 -21 -40 -32 -7 -12 -22 -21 -33 -21 -12 0 -42 -13 -68 -30 -26
-16 -49 -30 -51 -30 -2 0 -30 -16 -61 -35 -32 -19 -62 -32 -66 -29 -5 3 -9 36
-9 74 0 66 1 70 32 91 17 13 53 34 79 48 58 32 131 74 184 106 22 13 47 27 55
31 14 7 89 51 165 97 67 40 152 77 193 83 l42 7 0 -52 c0 -28 5 -51 10 -51 6
0 10 33 10 78 l0 78 38 17 c21 9 42 17 45 17 4 0 7 -45 7 -101 0 -64 4 -98 10
-94 6 3 10 31 10 61 0 51 1 54 26 54 14 0 23 4 19 10 -3 6 -17 10 -31 10 -23
0 -25 3 -22 41 3 37 7 43 38 54 19 7 66 13 103 14 57 1 77 -4 125 -29z m-2232
-77 c-31 -43 -63 -87 -72 -98 -8 -11 -42 -58 -74 -105 -33 -47 -67 -94 -75
-105 -34 -44 -148 -204 -187 -262 -23 -35 -46 -63 -51 -63 -11 0 -15 -5 208
304 110 153 206 288 214 300 38 56 85 115 89 111 2 -2 -21 -39 -52 -82z m1839
-13 c-5 -8 -11 -8 -17 -2 -6 6 -7 16 -3 22 5 8 11 8 17 2 6 -6 7 -16 3 -22z
m471 -135 c32 -13 35 -18 30 -42 -4 -18 -3 -23 2 -14 6 8 12 9 16 3 9 -15 -13
-20 -69 -15 -27 2 -60 4 -71 5 -17 0 -20 5 -16 22 5 23 40 55 60 56 7 0 29 -7
48 -15z m-116 -90 c14 -17 4 -55 -16 -55 -8 0 -23 -6 -34 -12 -16 -10 -24 -10
-40 -1 -10 7 -26 10 -33 7 -8 -3 -17 2 -21 12 -4 11 -2 15 8 11 10 -4 13 -1 9
9 -3 8 0 21 7 29 17 20 103 20 120 0z m168 -31 c5 -33 -21 -56 -71 -61 l-47
-6 0 37 c0 35 1 36 39 36 22 0 43 5 46 11 10 15 30 5 33 -17z m-152 -58 c12
-47 1 -70 -36 -78 -78 -17 -130 8 -130 62 0 17 4 20 21 15 12 -4 27 -8 33 -10
6 -1 19 -5 29 -10 11 -5 24 -2 36 9 10 9 21 13 25 9 4 -4 4 0 0 10 -3 10 -1
17 5 17 6 0 13 -11 17 -24z m847 -80 c39 -24 78 -45 86 -48 11 -3 -147 -108
-164 -108 -3 0 -5 45 -5 100 0 55 2 100 5 100 3 0 38 -20 78 -44z m701 28 c24
-9 20 -42 -6 -46 -13 -2 -21 -7 -18 -13 3 -5 15 -9 28 -7 24 3 25 2 16 -23
-10 -25 -51 -37 -74 -22 -25 15 -27 57 -2 58 10 0 12 3 5 6 -14 5 -18 35 -6
46 8 9 36 9 57 1z m-2684 -139 c0 -41 -4 -75 -9 -75 -4 0 -25 -11 -45 -25
l-36 -24 0 78 c0 78 0 79 30 91 17 7 30 16 30 21 0 5 7 9 15 9 12 0 15 -15 15
-75z m-110 -69 c0 -72 0 -74 -30 -86 -17 -7 -39 -24 -50 -37 -11 -14 -25 -23
-32 -21 -7 3 -46 -16 -88 -40 -114 -68 -156 -89 -187 -94 -15 -3 -36 -9 -45
-13 -15 -6 -18 -2 -18 23 0 16 -7 35 -15 42 -17 14 -17 15 -120 -45 -62 -36
-75 -40 -75 -27 0 8 32 30 119 79 78 45 140 80 183 106 21 12 61 35 90 51 29
16 64 36 78 45 14 9 36 23 50 29 14 7 47 26 75 42 27 16 53 26 57 24 4 -3 8
-38 8 -78z m-1378 -156 c18 -11 29 -20 23 -20 -5 0 -23 9 -40 20 -39 26 -25
26 17 0z m358 10 c0 -5 -2 -10 -4 -10 -3 0 -8 5 -11 10 -3 6 -1 10 4 10 6 0
11 -4 11 -10z m-25 -40 c3 -5 1 -10 -4 -10 -6 0 -11 5 -11 10 0 6 2 10 4 10 3
0 8 -4 11 -10z m-255 -10 c8 -5 12 -11 9 -14 -3 -3 -14 1 -25 9 -21 16 -8 20
16 5z m124 -79 c3 -4 -10 -1 -29 8 -19 9 -34 19 -35 24 0 9 56 -19 64 -32z
m96 -54 c0 -9 -56 19 -64 32 -3 4 10 1 29 -8 19 -9 34 -19 35 -24z m3010 -23
c0 -19 -5 -24 -26 -24 -53 0 -83 43 -36 52 37 8 62 -4 62 -28z m-3245 -15 c33
-24 94 -97 118 -145 25 -48 39 -124 32 -169 -5 -37 -11 -43 -71 -78 -66 -39
-84 -40 -84 -5 0 21 -15 60 -57 145 -39 79 -154 186 -182 169 -5 -3 -14 0 -20
8 -12 15 0 26 94 78 59 33 119 32 170 -3z m370 -37 c73 -43 70 -41 62 -48 -8
-8 -138 68 -158 92 -13 16 -12 16 11 4 14 -7 52 -28 85 -48z m-904 38 c15 -8
19 -22 19 -60 l0 -50 -40 0 c-42 0 -58 15 -46 45 4 12 11 13 32 5 38 -15 42
-5 5 11 -29 13 -40 37 -24 52 9 10 31 9 54 -3z m3776 -34 c-2 -6 -19 -11 -37
-11 -18 0 -35 5 -37 11 -2 7 12 11 37 11 25 0 39 -4 37 -11z m-1330 -28 c-3
-8 -6 -5 -6 6 -1 11 2 17 5 13 3 -3 4 -12 1 -19z m-2128 -44 c3 -4 -10 -4 -30
-1 -39 6 -68 -8 -101 -48 -14 -16 -17 -17 -18 -4 0 9 11 28 24 42 21 22 31 25
71 22 26 -2 50 -7 54 -11z m747 -31 c-5 -5 -76 35 -76 43 0 2 18 -5 41 -16 23
-12 38 -24 35 -27z m-256 -13 c28 -16 55 -30 60 -30 10 0 50 -49 50 -61 0 -16
-109 40 -157 81 -12 10 -18 40 -8 40 2 0 27 -13 55 -30z m1667 24 c-3 -3 -12
-4 -19 -1 -8 3 -5 6 6 6 11 1 17 -2 13 -5z m-2127 -43 c22 -16 53 -62 78 -116
6 -12 17 -27 26 -34 24 -20 22 -121 -3 -152 -16 -20 -28 -24 -68 -22 -44 1
-46 0 -29 -13 11 -8 14 -14 7 -14 -7 0 -19 7 -27 15 -9 8 -11 15 -4 15 6 0
-13 24 -42 53 -73 73 -103 164 -81 246 7 28 58 52 93 44 14 -3 36 -13 50 -22z
m770 9 c13 -8 13 -10 -2 -10 -9 0 -20 5 -23 10 -8 13 5 13 25 0z m1167 -6 c-3
-3 -12 -4 -19 -1 -8 3 -5 6 6 6 11 1 17 -2 13 -5z m-1117 -24 c8 -5 11 -10 5
-10 -5 0 -17 5 -25 10 -8 5 -10 10 -5 10 6 0 17 -5 25 -10z m-1003 -22 c-3 -8
-6 -5 -6 6 -1 11 2 17 5 13 3 -3 4 -12 1 -19z m1078 -23 c22 -14 36 -25 30
-25 -5 1 -28 12 -50 25 -22 14 -35 25 -30 25 6 -1 28 -12 50 -25z m1537 4 c15
-8 77 -85 100 -124 4 -7 -22 -11 -75 -10 -70 0 -91 -4 -140 -28 -87 -42 -149
-115 -176 -206 l-13 -44 -23 29 c-38 46 -55 88 -55 136 1 108 110 232 230 259
40 9 125 2 152 -12z m-1441 -59 c31 -25 12 -26 -21 0 -14 11 -20 20 -14 20 7
0 22 -9 35 -20z m506 14 c-3 -3 -12 -4 -19 -1 -8 3 -5 6 6 6 11 1 17 -2 13 -5z
m-777 -40 c46 -10 140 -101 175 -171 23 -44 31 -75 33 -130 l4 -72 -48 -30
c-27 -16 -63 -38 -80 -49 l-32 -20 -4 52 c-9 93 -106 261 -139 241 -8 -5 -10
-4 -5 3 8 14 -69 72 -96 72 -27 0 -18 20 18 42 61 36 119 66 130 67 6 1 26 -2
44 -5z m587 0 c-3 -3 -12 -4 -19 -1 -8 3 -5 6 6 6 11 1 17 -2 13 -5z m3170
-67 c-18 -41 -60 -76 -65 -53 -3 13 68 100 75 92 3 -2 -2 -19 -10 -39z m-4331
-81 c-9 -36 -44 -66 -78 -66 -33 0 -35 6 -4 12 33 6 76 57 77 91 1 25 3 27 6
8 3 -12 2 -33 -1 -45z m1504 49 c26 -13 110 -117 110 -136 0 -4 -14 -4 -31 1
-34 10 -141 3 -149 -10 -3 -4 -16 -11 -30 -15 -76 -23 -164 -124 -179 -204 -3
-19 -11 -36 -17 -38 -6 -2 -26 18 -45 44 -29 41 -34 56 -33 103 0 32 8 71 19
93 34 71 117 145 190 168 38 13 136 9 165 -6z m930 -32 c0 -9 -9 -4 -25 13
-14 15 -25 29 -25 31 0 2 11 -4 25 -13 14 -9 25 -23 25 -31z m-72 19 c28 -19
62 -77 62 -109 0 -35 -30 -103 -58 -133 -10 -10 -41 -32 -70 -49 -93 -55 -193
-37 -233 41 -26 51 -19 68 25 68 79 0 207 86 223 150 10 42 22 50 51 32z
m-1982 -11 c5 -5 18 -11 29 -14 11 -3 -1 -3 -27 0 -44 5 -50 3 -77 -26 -22
-24 -31 -44 -34 -79 l-3 -47 -2 45 c-2 56 24 112 58 121 36 10 45 10 56 0z
m64 -70 c14 -10 39 -41 55 -68 17 -28 39 -63 50 -79 14 -20 19 -43 19 -87 0
-51 -4 -62 -25 -78 -33 -25 -72 -24 -118 5 -81 51 -147 192 -127 271 8 33 62
66 96 59 14 -3 36 -14 50 -23z m1137 -67 c-3 -3 -12 -4 -19 -1 -8 3 -5 6 6 6
11 1 17 -2 13 -5z m73 -51 c0 -8 -8 -5 -20 7 -11 11 -20 22 -20 25 0 3 9 0 20
-7 11 -7 20 -18 20 -25z m-43 -15 c28 -27 33 -39 33 -80 0 -110 -115 -213
-235 -212 -62 1 -90 15 -115 57 -37 60 -22 86 50 87 61 0 170 85 191 147 13
42 34 42 76 1z m70 -75 c-3 -10 -5 -4 -5 12 0 17 2 24 5 18 2 -7 2 -21 0 -30z
m2493 -81 c0 -95 -7 -112 -50 -112 -40 0 -50 18 -50 91 l0 67 38 20 c61 33 62
32 62 -66z m-3573 26 c-3 -7 -5 -2 -5 12 0 14 2 19 5 13 2 -7 2 -19 0 -25z
m1530 6 c-3 -3 -12 -4 -19 -1 -8 3 -5 6 6 6 11 1 17 -2 13 -5z m-1537 -40 c0
-11 -23 -49 -34 -56 -6 -4 -18 -8 -26 -8 -10 0 -6 9 13 25 15 14 27 30 27 35
0 6 5 10 10 10 6 0 10 -3 10 -6z m-82 -59 c11 -10 -8 -17 -20 -8 -7 6 -20 13
-28 16 -8 2 -2 3 14 1 16 -2 32 -6 34 -9z m-1128 -134 c14 -8 63 -37 110 -64
47 -27 112 -65 145 -84 33 -18 67 -38 75 -43 53 -32 219 -128 240 -138 14 -7
63 -35 110 -63 47 -28 94 -55 105 -60 11 -5 61 -34 110 -64 50 -30 115 -68
145 -85 30 -17 62 -34 70 -40 14 -9 185 -107 246 -142 16 -9 63 -36 104 -60
41 -24 87 -50 102 -58 14 -8 53 -30 85 -49 32 -18 70 -40 86 -48 20 -11 27
-22 27 -43 0 -24 -3 -28 -17 -23 -43 15 -125 58 -218 113 -55 33 -120 72 -145
85 -25 14 -52 29 -60 34 -32 20 -187 110 -227 133 -23 12 -77 43 -120 68 -110
64 -124 72 -179 102 -27 15 -94 55 -149 88 -55 33 -109 64 -120 69 -12 5 -61
33 -110 63 -50 29 -101 59 -115 66 -14 7 -65 37 -115 66 -49 30 -96 55 -102
55 -7 1 -13 5 -13 9 0 4 -21 19 -47 33 -86 45 -97 52 -115 73 -9 12 -17 36
-18 54 l0 33 43 -33 c23 -18 53 -39 67 -47z m1969 -96 c1 -61 0 -65 -23 -71
-53 -13 -61 -4 -64 69 l-3 67 44 0 44 0 2 -65z m-806 -13 c34 -20 71 -42 82
-48 11 -6 21 -23 23 -38 3 -25 1 -27 -20 -21 -13 4 -30 14 -39 21 -8 8 -21 14
-28 14 -7 0 -19 7 -27 15 -9 8 -23 15 -32 15 -36 1 -67 80 -32 80 6 0 39 -17
73 -38z m2757 -106 c0 -6 -90 -60 -112 -69 -10 -3 -18 -2 -18 3 0 5 11 12 25
16 14 3 29 11 33 18 14 21 72 47 72 32z m-3835 -67 c4 -5 18 -14 31 -19 l24
-10 0 -195 0 -195 -27 -6 c-56 -14 -58 -6 -61 225 -2 180 0 211 12 211 8 0 18
-5 21 -11z m3610 -59 c-3 -5 -11 -10 -16 -10 -6 0 -7 5 -4 10 3 6 11 10 16 10
6 0 7 -4 4 -10z m-49 -35 c-11 -8 -27 -15 -35 -15 -13 1 -12 4 3 15 11 8 27
15 35 15 13 -1 12 -4 -3 -15z m-1604 -90 c0 -14 -29 -31 -38 -22 -9 8 16 39
28 35 5 -2 10 -8 10 -13z m-1396 -130 c71 -41 134 -79 141 -85 7 -5 14 -10 17
-10 8 0 186 -102 186 -107 0 -10 -56 -52 -69 -53 -12 0 -91 42 -171 90 -8 5
-42 25 -75 43 -212 120 -263 155 -239 164 6 2 20 10 30 18 10 8 26 15 35 15 9
0 74 -34 145 -75z m2943 -394 c20 -11 43 -27 51 -36 10 -12 3 -11 -36 6 -102
44 -241 -7 -372 -138 -74 -74 -182 -222 -182 -250 0 -7 -4 -13 -10 -13 -5 0
-10 -9 -10 -19 0 -11 -4 -23 -10 -26 -35 -21 22 117 93 228 83 129 194 217
327 261 37 11 113 5 149 -13z m-2251 -64 c3 -12 -3 -17 -21 -17 -31 0 -40 10
-25 27 15 18 42 12 46 -10z m72 -41 c0 -14 -34 -28 -44 -18 -15 14 -4 32 19
32 15 0 25 -6 25 -14z m68 -43 c-3 -18 -29 -25 -48 -13 -19 12 -3 30 26 30 18
0 25 -5 22 -17z m2006 -39 c28 -27 37 -51 23 -61 -6 -6 -47 -27 -90 -49 -43
-21 -81 -42 -83 -46 -13 -21 -23 -4 -20 36 3 53 15 69 81 107 58 33 68 35 89
13z m-1924 -9 c-7 -8 -21 -15 -31 -15 -11 0 -19 7 -19 15 0 10 10 15 31 15 27
0 30 -2 19 -15z m650 -56 c0 -45 -2 -50 -15 -39 -15 12 -21 71 -8 83 16 17 23
3 23 -44z m-583 24 c5 -14 -35 -24 -43 -11 -7 11 15 29 30 25 6 -2 11 -8 13
-14z m523 -30 c0 -35 0 -36 -20 -18 -25 22 -26 42 -2 48 9 3 18 5 20 6 1 0 2
-15 2 -36z m1090 -6 c0 -7 -10 -24 -22 -37 -20 -22 -23 -22 -26 -6 -4 17 23
56 40 56 4 0 8 -6 8 -13z m-1270 -247 l0 -249 -32 -9 c-57 -16 -58 -13 -58
254 l0 243 33 4 c17 2 38 5 45 5 9 2 12 -54 12 -248z m300 236 c0 -3 -4 -8
-10 -11 -5 -3 -10 -1 -10 4 0 6 5 11 10 11 6 0 10 -2 10 -4z m1300 -24 c0 -5
18 -14 40 -21 22 -6 40 -15 40 -19 0 -32 -41 -185 -59 -219 -55 -110 -119
-192 -180 -236 -134 -95 -230 -108 -300 -38 -29 29 -27 44 6 38 35 -6 97 17
146 55 27 21 43 27 60 22 21 -6 21 -6 5 13 -10 11 -18 25 -18 32 0 7 -12 52
-27 101 -36 123 -20 139 105 106 82 -22 111 0 142 109 18 64 19 65 30 65 5 0
10 -4 10 -8z m-1260 -13 c0 -20 -21 -49 -35 -49 -26 0 -28 23 -4 41 27 21 39
24 39 8z m960 -34 c0 -8 -6 -15 -14 -15 -7 0 -25 -9 -40 -21 -26 -20 -26 -20
-26 0 0 22 35 51 62 51 10 0 18 -7 18 -15z m-1047 -18 c40 -19 44 -26 25 -45
-8 -8 -14 -48 -15 -110 -1 -53 -6 -97 -10 -97 -21 0 -223 122 -229 138 -8 24
13 47 43 47 32 0 63 17 63 35 0 12 67 55 80 51 3 -1 22 -10 43 -19z m917 -198
c0 -15 -31 -138 -43 -171 -20 -57 -34 -21 -27 71 3 52 70 147 70 100z"/>
<path d="M4660 5690 c14 -4 32 -8 40 -9 13 -1 13 0 0 9 -8 5 -26 9 -40 9 l-25
-1 25 -8z"/>
<path d="M3490 3688 c0 -4 14 -8 30 -8 17 0 30 2 30 4 0 2 -13 6 -30 8 -16 3
-30 1 -30 -4z"/>
<path d="M2310 5726 c0 -2 9 -6 20 -9 11 -3 20 -1 20 4 0 5 -9 9 -20 9 -11 0
-20 -2 -20 -4z"/>
<path d="M2368 5713 c6 -2 18 -2 25 0 6 3 1 5 -13 5 -14 0 -19 -2 -12 -5z"/>
<path d="M1890 5296 c0 -2 18 -6 40 -8 22 -2 40 0 40 4 0 5 -18 8 -40 8 -22 0
-40 -2 -40 -4z"/>
<path d="M1998 5273 c6 -2 18 -2 25 0 6 3 1 5 -13 5 -14 0 -19 -2 -12 -5z"/>
</g>
</svg>
